<svg xmlns="http://www.w3.org/2000/svg" width="800" height="480" viewBox="0 0 800 480">
  <rect width="800" height="480" fill="#f5f5f5" />
  <text x="30" y="50" font-size="28" font-family="Arial" fill="#333">Mapa diario Folium (ejemplo referencial)</text>
  <rect x="30" y="70" width="300" height="60" rx="8" fill="#ffffff" stroke="#cccccc" />
  <circle cx="60" cy="100" r="10" fill="#007bff" />
  <text x="80" y="107" font-size="18" font-family="Arial" fill="#333">Reporte directo (azul)</text>
  <rect x="360" y="70" width="300" height="60" rx="8" fill="#ffffff" stroke="#cccccc" />
  <circle cx="390" cy="100" r="10" fill="#d9534f" />
  <text x="410" y="107" font-size="18" font-family="Arial" fill="#333">Reporte buffer (rojo)</text>
  <g transform="translate(80,160)">
    <rect x="0" y="0" width="640" height="280" fill="#e0e7ef" stroke="#b0bec5" />
    <text x="320" y="30" font-size="18" font-family="Arial" fill="#333" text-anchor="middle">Recorrido local 2023-08-01 (America/Santiago)</text>
    <circle cx="120" cy="220" r="12" fill="#5cb85c" />
    <text x="120" y="250" font-size="14" font-family="Arial" fill="#333" text-anchor="middle">Inicio</text>
    <circle cx="520" cy="90" r="12" fill="#d9534f" />
    <text x="520" y="120" font-size="14" font-family="Arial" fill="#333" text-anchor="middle">Fin</text>
    <polyline points="120,220 260,180 360,160" stroke="#007bff" stroke-width="6" fill="none" stroke-linecap="round" />
    <polyline points="360,160 450,130 520,90" stroke="#d9534f" stroke-width="6" fill="none" stroke-linecap="round" />
    <text x="220" y="190" font-size="12" font-family="Arial" fill="#1d3557">08:05 CLT</text>
    <text x="420" y="140" font-size="12" font-family="Arial" fill="#7b1e1e">08:25 CLT</text>
    <path d="M300 170 l15 -5 l-10 -10 z" fill="#007bff" opacity="0.8" />
    <path d="M440 120 l15 -5 l-10 -10 z" fill="#d9534f" opacity="0.8" />
  </g>
</svg>
